<svg width="205" height="60" viewBox="0 0 205 60" fill="none" xmlns="http://www.w3.org/2000/svg">
<g clip-path="url(#clip0_1_3)">
<rect width="1440" height="1024" fill="white"/>
<g filter="url(#filter0_d_1_3)">
<path d="M27.3728 24.336C25.6448 24.336 24.2688 23.864 23.2448 22.92C22.2368 21.976 21.7328 20.656 21.7328 18.96V17.376H24.9008V18.96C24.9008 19.712 25.1088 20.304 25.5248 20.736C25.9408 21.152 26.5248 21.36 27.2768 21.36C27.9808 21.36 28.5248 21.152 28.9088 20.736C29.3088 20.32 29.5088 19.728 29.5088 18.96V10.08H26.6288V7.2H34.5968V10.08H32.6768V18.96C32.6768 20.704 32.2048 22.04 31.2608 22.968C30.3168 23.88 29.0208 24.336 27.3728 24.336ZM43.6773 24.336C42.3013 24.336 41.1173 24.088 40.1253 23.592C39.1493 23.08 38.3973 22.36 37.8693 21.432C37.3573 20.488 37.1013 19.376 37.1013 18.096V7.2H40.2693V18.192C40.2693 19.216 40.5573 20.024 41.1333 20.616C41.7253 21.208 42.5733 21.504 43.6773 21.504C44.7813 21.504 45.6213 21.208 46.1973 20.616C46.7893 20.024 47.0853 19.216 47.0853 18.192V7.2H50.2533V18.096C50.2533 19.376 49.9893 20.488 49.4613 21.432C48.9493 22.36 48.1973 23.08 47.2053 23.592C46.2293 24.088 45.0533 24.336 43.6773 24.336ZM51.9359 24L56.3519 7.2H61.8719L66.2879 24H63.0239L62.1119 20.304H56.1119L55.1999 24H51.9359ZM56.8559 17.376H61.3679L59.3279 9.192H58.8959L56.8559 17.376ZM68.2988 24V7.2H74.3228L77.6588 21.84H78.0908V7.2H81.2108V24H75.1868L71.8508 9.36H71.4188V24H68.2988ZM90.4707 24V7.2H96.3507L99.2547 21.84H99.6867L102.591 7.2H108.471V24H105.399V9.528H104.967L102.087 24H96.8547L93.9747 9.528H93.5427V24H90.4707ZM110.483 24L114.899 7.2H120.419L124.835 24H121.571L120.659 20.304H114.659L113.747 24H110.483ZM115.403 17.376H119.915L117.875 9.192H117.443L115.403 17.376ZM126.846 24V7.2H132.87L136.206 21.84H136.638V7.2H139.758V24H133.734L130.398 9.36H129.966V24H126.846ZM149.404 24.336C148.028 24.336 146.844 24.088 145.852 23.592C144.876 23.08 144.124 22.36 143.596 21.432C143.084 20.488 142.828 19.376 142.828 18.096V7.2H145.996V18.192C145.996 19.216 146.284 20.024 146.86 20.616C147.452 21.208 148.3 21.504 149.404 21.504C150.508 21.504 151.348 21.208 151.924 20.616C152.516 20.024 152.812 19.216 152.812 18.192V7.2H155.98V18.096C155.98 19.376 155.716 20.488 155.188 21.432C154.676 22.36 153.924 23.08 152.932 23.592C151.956 24.088 150.78 24.336 149.404 24.336ZM159.049 24V7.2H169.849V10.08H162.217V14.088H169.177V16.968H162.217V21.12H169.993V24H159.049ZM172.338 24V7.2H175.506V21.12H183.186V24H172.338ZM29.7676 55V38.2H32.9356V52.12H40.6156V55H29.7676ZM48.7409 55.336C46.6289 55.336 44.9489 54.76 43.7009 53.608C42.4529 52.44 41.8289 50.776 41.8289 48.616V44.584C41.8289 42.424 42.4529 40.768 43.7009 39.616C44.9489 38.448 46.6289 37.864 48.7409 37.864C50.8529 37.864 52.5329 38.448 53.7809 39.616C55.0289 40.768 55.6529 42.424 55.6529 44.584V48.616C55.6529 50.776 55.0289 52.44 53.7809 53.608C52.5329 54.76 50.8529 55.336 48.7409 55.336ZM48.7409 52.504C49.9249 52.504 50.8449 52.16 51.5009 51.472C52.1569 50.784 52.4849 49.864 52.4849 48.712V44.488C52.4849 43.336 52.1569 42.416 51.5009 41.728C50.8449 41.04 49.9249 40.696 48.7409 40.696C47.5729 40.696 46.6529 41.04 45.9809 41.728C45.3249 42.416 44.9969 43.336 44.9969 44.488V48.712C44.9969 49.864 45.3249 50.784 45.9809 51.472C46.6529 52.16 47.5729 52.504 48.7409 52.504ZM46.8689 36.808L48.5489 33.688H52.0529L49.5569 36.808H46.8689ZM58.4317 55V38.2H65.3437C66.3997 38.2 67.3277 38.416 68.1277 38.848C68.9437 39.264 69.5757 39.856 70.0237 40.624C70.4877 41.392 70.7197 42.304 70.7197 43.36V43.696C70.7197 44.736 70.4797 45.648 69.9997 46.432C69.5357 47.2 68.8957 47.8 68.0797 48.232C67.2797 48.648 66.3677 48.856 65.3437 48.856H61.5997V55H58.4317ZM61.5997 45.976H65.0317C65.7837 45.976 66.3917 45.768 66.8557 45.352C67.3197 44.936 67.5517 44.368 67.5517 43.648V43.408C67.5517 42.688 67.3197 42.12 66.8557 41.704C66.3917 41.288 65.7837 41.08 65.0317 41.08H61.5997V45.976ZM72.916 55V38.2H83.716V41.08H76.084V45.088H83.044V47.968H76.084V52.12H83.86V55H72.916ZM85.7251 55V50.968L94.0291 41.416V41.032H85.9651V38.2H97.3411V42.232L89.0371 51.784V52.168H97.3891V55H85.7251ZM106.127 55V38.2H113.423C114.479 38.2 115.399 38.384 116.183 38.752C116.967 39.12 117.575 39.64 118.007 40.312C118.439 40.984 118.655 41.776 118.655 42.688V42.976C118.655 43.984 118.415 44.8 117.935 45.424C117.455 46.048 116.863 46.504 116.159 46.792V47.224C116.799 47.256 117.295 47.48 117.647 47.896C117.999 48.296 118.175 48.832 118.175 49.504V55H115.007V49.96C115.007 49.576 114.903 49.264 114.695 49.024C114.503 48.784 114.175 48.664 113.711 48.664H109.295V55H106.127ZM109.295 45.784H113.087C113.839 45.784 114.423 45.584 114.839 45.184C115.271 44.768 115.487 44.224 115.487 43.552V43.312C115.487 42.64 115.279 42.104 114.863 41.704C114.447 41.288 113.855 41.08 113.087 41.08H109.295V45.784ZM121.291 55V38.2H132.091V41.08H124.459V45.088H131.419V47.968H124.459V52.12H132.235V55H121.291ZM138.9 55V49.216L133.188 38.2H136.716L140.268 45.4H140.7L144.252 38.2H147.78L142.068 49.216V55H138.9ZM149.557 55V38.2H160.357V41.08H152.725V45.088H159.685V47.968H152.725V52.12H160.501V55H149.557ZM168.678 55.336C167.382 55.336 166.238 55.104 165.246 54.64C164.254 54.176 163.478 53.512 162.918 52.648C162.358 51.784 162.078 50.744 162.078 49.528V48.856H165.198V49.528C165.198 50.536 165.51 51.296 166.134 51.808C166.758 52.304 167.606 52.552 168.678 52.552C169.766 52.552 170.574 52.336 171.102 51.904C171.646 51.472 171.918 50.92 171.918 50.248C171.918 49.784 171.782 49.408 171.51 49.12C171.254 48.832 170.87 48.6 170.358 48.424C169.862 48.232 169.254 48.056 168.534 47.896L167.982 47.776C166.83 47.52 165.838 47.2 165.006 46.816C164.19 46.416 163.558 45.896 163.11 45.256C162.678 44.616 162.462 43.784 162.462 42.76C162.462 41.736 162.702 40.864 163.182 40.144C163.678 39.408 164.366 38.848 165.246 38.464C166.142 38.064 167.19 37.864 168.39 37.864C169.59 37.864 170.654 38.072 171.582 38.488C172.526 38.888 173.262 39.496 173.79 40.312C174.334 41.112 174.606 42.12 174.606 43.336V44.056H171.486V43.336C171.486 42.696 171.358 42.184 171.102 41.8C170.862 41.4 170.51 41.112 170.046 40.936C169.582 40.744 169.03 40.648 168.39 40.648C167.43 40.648 166.718 40.832 166.254 41.2C165.806 41.552 165.582 42.04 165.582 42.664C165.582 43.08 165.686 43.432 165.894 43.72C166.118 44.008 166.446 44.248 166.878 44.44C167.31 44.632 167.862 44.8 168.534 44.944L169.086 45.064C170.286 45.32 171.326 45.648 172.206 46.048C173.102 46.448 173.798 46.976 174.294 47.632C174.79 48.288 175.038 49.128 175.038 50.152C175.038 51.176 174.774 52.08 174.246 52.864C173.734 53.632 172.998 54.24 172.038 54.688C171.094 55.12 169.974 55.336 168.678 55.336Z" fill="black"/>
</g>
</g>
<defs>
<filter id="filter0_d_1_3" x="17.7328" y="7.20001" width="169.453" height="56.136" filterUnits="userSpaceOnUse" color-interpolation-filters="sRGB">
<feFlood flood-opacity="0" result="BackgroundImageFix"/>
<feColorMatrix in="SourceAlpha" type="matrix" values="0 0 0 0 0 0 0 0 0 0 0 0 0 0 0 0 0 0 127 0" result="hardAlpha"/>
<feOffset dy="4"/>
<feGaussianBlur stdDeviation="2"/>
<feComposite in2="hardAlpha" operator="out"/>
<feColorMatrix type="matrix" values="0 0 0 0 0 0 0 0 0 0 0 0 0 0 0 0 0 0 0.25 0"/>
<feBlend mode="normal" in2="BackgroundImageFix" result="effect1_dropShadow_1_3"/>
<feBlend mode="normal" in="SourceGraphic" in2="effect1_dropShadow_1_3" result="shape"/>
</filter>
<clipPath id="clip0_1_3">
<rect width="1440" height="1024" fill="white"/>
</clipPath>
</defs>
</svg>
